<svg xmlns="http://www.w3.org/2000/svg" viewBox="0 0 293.75 111"><title>RileyBrewCo_Black</title><g id="Layer_2" data-name="Layer 2"><g id="Layer_2-2" data-name="Layer 2"><path d="M288.54,5.21V105.79H5.21V5.21H288.54M293.75,0H0V111H293.75V0Z"/><rect x="185.09" y="3.82" width="4.25" height="106.18"/><path d="M72.2,75.69c-20.1,0-13.68-17.88-17.58-24.75-7.56,14-19.1,29.42-35.68,22.46-13.15-5.5-9-27.36,4.2-29.19,8-1.07,12.53,3.21,13.3,6.27A6.45,6.45,0,0,1,33.15,58s.92-6.27-5.81-6-10.7,8.18-8.86,13.68C20.54,72,26,73.94,33.69,68.36c12.45-9,19.94-43.1,39.58-45.77a43.72,43.72,0,0,1,4.58,0c-.53.3-11.84,5.65-20.7,23.45L55.77,48.8C68.38,51,85,44,85.57,35.12c1-15.06-15.36-21.4-26.82-18.95C46.68,18.76,36.9,29.84,44.92,42.07c-13.53-1.45-13.14-12.91-4.43-20.71C57,6.54,94.36,12.5,92.91,35.73c-.77,12.38-14.37,19.1-32.56,16.05C65.55,57.58,63,70.12,72.2,75.69Z"/><path d="M107.28,50.55c-6,8.33-15.28,20-20.56,21.17-8.33,1.76-6.57-7.56-1.91-15A173.09,173.09,0,0,1,95.43,41.92a24.33,24.33,0,0,0,7.65,0C102.31,43.29,91,54,87.49,64.08s5.8.53,8.1-1.76c1.91-2,6-7.18,9.62-11.77Zm-5.66-10.62a3.63,3.63,0,0,1,0-7.26,3.63,3.63,0,1,1,0,7.26Z"/><path d="M122.87,50.55c-6,8.33-15.29,20-20.56,21.17-8.33,1.76-6.57-7.56-1.91-15s26.14-38.59,26.14-38.59a27.27,27.27,0,0,0,8,0c-.84,1.37-28,35.91-31.48,46s5.8.53,8.1-1.76c1.91-2,6-7.18,9.62-11.77Z"/><path d="M146.4,50.48c-10.54,12.91-22.85,21.24-28,21.24-7.87,0-7.49-8.94-3.06-15.66,6.27-9.56,16.2-14.45,21.7-14.45,6.88,0,5.74,6.12.69,11.08-4.66,4.59-12.53,7.8-17.73,6.19-1.83,4.36-2.44,8.94,1.46,8.94,3.21,0,14.74-7.94,23.23-17.34Zm-25.67,6.57C127.91,60,142,43.06,137,43c-2.9-.08-9.62,3.51-14.59,11.23A24.85,24.85,0,0,0,120.73,57.05Z"/><path d="M179.88,50.55C173.84,58.88,164,70,156.8,71.8a113.43,113.43,0,0,0-2.6,11.08c-1.61,7.79-6.5,13.22-13.91,12.76-3.06-.23-7-3-6.19-8.86A11.58,11.58,0,0,1,139,78.67c-19.87,2.76-52.88,23.54-68.77,20.25C56.39,96.1,55.32,81.43,63.8,76.46,70,72.79,76.1,74.7,79.08,78.37c2.6,3.13,3,7.72,1,10.54-2.91,4.13-6.81,3.75-6.65,1.3.15-2.29,2.44-.91,4-2.52,2.21-2.37,2.29-7.11-.31-9.17-5.42-4.28-13.75,1-13.6,8,.08,4.2,1.53,10.47,10.7,11.31,20,1.83,66.4-31.79,74.27-19.11-11.61-2.75-15.43,12.69-8.25,13.3,5.58.46,8-7.26,9.17-12.23,1.22-5.5,2.45-10.08,3.75-14.06-3,3.52-6.27,6.12-10,6.12-7.8,0-7.34-8.94-3.06-15.74,4.43-7,9.7-13.91,9.86-14.14h7.41c-4,5.12-20.41,25.67-11.16,26,3.06.08,7.8-6.11,10.78-10.62l.38-.61c4.74-7.34,10.31-14.75,10.31-14.75a26.91,26.91,0,0,0,7.95,0c-1.37,1.83-15,16.35-18.49,28,3.21-1,9.25-5.73,10.93-7.57,1.91-2,6-7.18,9.62-11.77Z"/><path d="M216,46.82c0,7.35-3.37,9.49-9.23,9.49h-7V20.61h6.38c5.6,0,8.87,2.14,8.87,9.08,0,4.59-1.58,6.88-4.28,7.85C214.05,38.66,216,41.52,216,46.82Zm-11.58-10.4h1.68c3.47,0,4.24-1.28,4.24-4.64V27.85c0-3.36-.77-4.69-4.24-4.69h-1.68Zm6.58,7.8c0-3.67-1-5.3-4.23-5.3h-2.35V53.76h2.35c3.26,0,4.23-1.33,4.23-5Z"/><path d="M230.75,56.31,226.26,40.5h-2.81V56.31h-4.64V20.61h7c5.76,0,9.23,2.09,9.23,9.74,0,5.46-1.43,8.16-4.28,9.33l5.15,16.63ZM230,32.75V28.21c0-3.72-.92-5.05-4.28-5.05h-2.3V38h2.09C229.11,38,230,36.37,230,32.75Z"/><path d="M238.38,20.61h12.74l.67,2.55H243V36.42h6.27v2.5H243V53.76h9.48l-.66,2.55H238.38Z"/><path d="M280.39,20.61l-6.53,35.7h-2.81L267,34.12l-4.14,22.19h-2.7l-6.63-35.7h4.69l4.39,23.51,4.33-23.51h2.2l4.38,23.61,4.34-23.61Z"/><path d="M211.05,79.18c0-9.79,6.47-15.21,14.7-15.21,3.95,0,7.9,1.51,10.17,4.41l-1.51,2.06h-.59a9.57,9.57,0,0,0-8.07-4c-4.91,0-8.1,2.56-8.1,8.82v7.82c0,6,3,8.73,8.1,8.73A10.61,10.61,0,0,0,234,88.29h.59L235.92,90a13,13,0,0,1-10.17,4.41C217.52,94.38,211.05,88.88,211.05,79.18Z"/><path d="M237.88,79.18c0-9.79,6.3-15.21,14.16-15.21s14.15,5.42,14.15,15.21-6.25,15.2-14.15,15.2S237.88,88.88,237.88,79.18Zm21.76,4.28V74.89c0-6.17-2.94-8.4-7.6-8.4s-7.56,2.23-7.56,8.4v8.57c0,6.18,2.94,8.4,7.56,8.4S259.64,89.64,259.64,83.46Z"/><path d="M272.12,91.53a2.72,2.72,0,0,1-2.82,2.72,2.72,2.72,0,1,1,0-5.44A2.71,2.71,0,0,1,272.12,91.53Z"/></g></g></svg>