<svg id="Layer_1" data-name="Layer 1" xmlns="http://www.w3.org/2000/svg" viewBox="0 0 516.14 262.73"><defs><style>.cls-1{fill:#fff;}</style></defs><title>RBC_Script_Logo_White</title><path class="cls-1" d="M239.84,210.83c0,5.34-2.45,6.9-6.72,6.9H228v-26h4.64c4.09,0,6.46,1.56,6.46,6.62,0,3.34-1.15,5-3.12,5.72C238.39,204.88,239.84,207,239.84,210.83Zm-8.43-7.58h1.22c2.53,0,3.09-.93,3.09-3.38V197c0-2.45-.56-3.42-3.09-3.42h-1.22Zm4.79,5.68c0-2.67-.71-3.86-3.08-3.86h-1.71v10.81h1.71c2.37,0,3.08-1,3.08-3.64Z"/><path class="cls-1" d="M250.55,217.73l-3.27-11.51h-2v11.51h-3.38v-26H247c4.19,0,6.72,1.53,6.72,7.1,0,4-1,5.94-3.12,6.8l3.75,12.1ZM250,200.57v-3.3c0-2.71-.67-3.68-3.12-3.68h-1.67V204.4h1.52C249.36,204.4,250,203.21,250,200.57Z"/><path class="cls-1" d="M256.11,191.73h9.28l.49,1.86h-6.39v9.66h4.57v1.82h-4.57v10.81h6.91l-.49,1.85h-9.8Z"/><path class="cls-1" d="M286.71,191.73l-4.76,26h-2l-3-16.15-3,16.15h-2l-4.83-26h3.42l3.2,17.13,3.15-17.13h1.6l3.19,17.2,3.16-17.2Z"/><path class="cls-1" d="M293.64,199.73c0-5.14,3.41-8,7.74-8a6.8,6.8,0,0,1,5.35,2.33l-.8,1.08h-.31a5,5,0,0,0-4.24-2.08c-2.59,0-4.27,1.35-4.27,4.64v4.11c0,3.18,1.57,4.6,4.27,4.6a5.56,5.56,0,0,0,4.33-1.88H306l.71.88a6.85,6.85,0,0,1-5.35,2.32C297.05,207.73,293.64,204.84,293.64,199.73Z"/><path class="cls-1" d="M307.76,199.73c0-5.14,3.31-8,7.45-8s7.44,2.86,7.44,8-3.29,8-7.44,8S307.76,204.84,307.76,199.73ZM319.21,202v-4.51c0-3.25-1.55-4.42-4-4.42s-4,1.17-4,4.42V202c0,3.25,1.55,4.42,4,4.42S319.21,205.24,319.21,202Z"/><path class="cls-1" d="M325.77,206.23a1.43,1.43,0,0,1-1.48,1.43,1.43,1.43,0,1,1,0-2.86A1.43,1.43,0,0,1,325.77,206.23Z"/><path class="cls-1" d="M187.22,190.7c-61.39,0-41.78-54.62-53.69-75.63-23.11,42.72-58.35,89.87-109,68.63C-15.63,166.89-3,100.13,37.36,94.53c24.28-3.27,38.28,9.8,40.62,19.14,2.33,9.57-1.4,18-10,22.88,0,0,2.8-19.14-17.74-18.44-20.54.93-32.68,25-27.08,41.78,6.3,19.37,23.11,25.44,46.45,8.4C107.62,140.75,130.5,36.64,190.49,28.47c5.13-.7,9.1.23,14,0-1.63.93-36.18,17.27-63.25,71.66l-4.21,8.4c38.52,6.77,89.17-14.7,91-41.78,3-46-46.92-65.36-81.93-57.89C109.25,16.8,79.38,50.64,103.89,88,62.57,83.56,63.74,48.54,90.35,24.74,140.77-20.55,254.91-2.34,250.48,68.62c-2.34,37.81-43.88,58.36-99.44,49C166.91,135.38,159,173.66,187.22,190.7Z"/><path class="cls-1" d="M294.38,113.9c-18.45,25.45-46.69,61.16-62.8,64.66-25.44,5.37-20.07-23.11-5.83-46,14.23-22.64,32.44-45.05,32.44-45.05s7.94,1.86,23.35,0c-2.34,4.2-36.88,36.88-47.62,67.69s17.74,1.63,24.74-5.37c5.84-6.07,18.44-21.94,29.41-35.95ZM277.1,81.46a11.09,11.09,0,0,1,0-22.18,11.09,11.09,0,1,1,0,22.18Z"/><path class="cls-1" d="M342,113.9c-18.44,25.45-46.68,61.16-62.79,64.66-25.44,5.37-20.07-23.11-5.83-46C287.61,109.94,353.2,14.7,353.2,14.7s8.87,1.87,24.51,0c-2.57,4.2-85.44,109.71-96.17,140.52s17.74,1.63,24.74-5.37c5.84-6.07,18.44-21.94,29.41-35.95Z"/><path class="cls-1" d="M413.89,113.67c-32.21,39.45-69.8,64.89-85.67,64.89-24,0-22.87-27.31-9.34-47.85,19.15-29.18,49.49-44.12,66.3-44.12,21,0,17.51,18.68,2.1,33.85-14.24,14-38.28,23.81-54.16,18.91-5.6,13.3-7.47,27.31,4.44,27.31,9.8,0,45.05-24.28,71-53Zm-78.43,20.07c21.94,8.88,64.89-42.71,49.72-42.95-8.87-.23-29.41,10.74-44.59,34.32A77.68,77.68,0,0,0,335.46,133.74Z"/><path class="cls-1" d="M516.14,113.9c-18.45,25.45-48.56,59.53-70.5,64.89-.93,2.34-4.67,17.05-7.94,33.85-4.9,23.81-19.84,40.39-42.48,39-9.34-.69-21.48-9.1-18.91-27.07,1.64-11.44,7.47-19.61,14.94-24.75-60.69,8.41-161.53,71.9-210.08,61.86C138.92,253,135.65,208.21,161.56,193c18.91-11.21,37.58-5.37,46.68,5.83,7.94,9.57,9.11,23.58,3,32.21-8.87,12.61-20.78,11.44-20.31,4,.47-7,7.47-2.8,12.37-7.7,6.77-7.24,7-21.71-.93-28-16.57-13.08-42,3-41.55,24.27.23,12.84,4.67,32,32.68,34.55,61.16,5.6,202.85-97.1,226.89-58.36-35.48-8.4-47.15,38.75-25.21,40.62,17,1.4,24.51-22.17,28-37.35,3.73-16.81,7.47-30.81,11.44-42.95-9.11,10.74-19.14,18.67-30.58,18.67-23.81,0-22.41-27.31-9.34-48.08,13.54-21.24,29.65-42.48,30.11-43.18h22.65c-12.37,15.64-62.33,78.43-34.08,79.36,9.33.23,23.81-18.67,32.91-32.45l1.17-1.86C462,110.17,479,87.53,479,87.53s8.87,1.86,24.28,0c-4.21,5.6-46,49.95-56.49,85.43,9.8-3,28.24-17.51,33.38-23.11,5.83-6.07,18.44-21.94,29.41-35.95Z"/></svg>